<?xml version="1.0" standalone="no"?>
<!DOCTYPE svg PUBLIC "-//W3C//DTD SVG 20010904//EN"
 "http://www.w3.org/TR/2001/REC-SVG-20010904/DTD/svg10.dtd">
<svg version="1.0" xmlns="http://www.w3.org/2000/svg"
 width="1590.000000pt" height="902.000000pt" viewBox="0 0 1590.000000 902.000000"
 preserveAspectRatio="xMidYMid meet">

<g transform="translate(0.000000,902.000000) scale(0.100000,-0.100000)"
fill="#000000" stroke="none">
<path d="M6906 8909 c-42 -57 -467 -644 -945 -1304 l-869 -1200 40 -3 40 -3
-6 -92 c-20 -275 -26 -444 -32 -857 -11 -788 21 -954 210 -1092 51 -37 25 -36
-51 2 -74 37 -155 121 -189 195 -14 31 -35 99 -47 153 -21 93 -22 118 -21 662
0 499 9 801 30 1000 l6 55 -237 0 -237 0 6 -35 c3 -19 10 -167 16 -328 l12
-292 -34 -48 c-19 -26 -289 -399 -601 -830 -312 -430 -567 -784 -567 -787 0
-3 420 -5 933 -4 l932 0 -55 19 c-30 11 -44 17 -30 14 56 -13 347 -16 419 -5
324 50 535 249 611 574 33 142 40 286 40 796 0 444 12 876 24 889 3 2 26 7 52
10 l47 5 -7 -124 c-4 -68 -9 -392 -11 -719 -2 -327 -7 -623 -10 -657 -3 -35
-4 -63 -2 -63 3 0 161 205 353 456 l349 456 3 -428 c3 -397 -9 -925 -25 -1087
l-6 -69 59 9 c76 10 262 10 338 0 l59 -9 -6 94 c-15 214 -26 702 -29 1303 l-3
640 263 -4 262 -3 0 91 0 92 -217 -7 c-190 -6 -216 -5 -211 8 4 8 138 188 300
399 162 211 313 410 337 441 l43 57 -18 30 c-10 17 -31 35 -46 40 -23 8 -28
15 -23 33 6 29 45 317 45 336 0 12 -24 14 -139 11 l-139 -4 -462 635 c-254
349 -465 639 -470 644 -5 5 -42 -37 -84 -95z m1133 -1515 c35 -8 71 -19 80
-25 13 -9 13 -9 -4 -4 -11 4 -63 9 -116 12 -264 15 -418 -79 -470 -287 -18
-70 -16 -294 5 -530 9 -96 16 -178 16 -182 0 -10 -71 -10 -88 0 -18 12 -44
319 -46 537 -1 163 1 186 22 245 34 100 84 158 172 202 116 58 265 69 429 32z
m-959 -1203 c0 -18 -9 -20 -121 -23 -67 -2 -123 1 -126 5 -3 4 -2 14 1 22 4
12 30 15 126 15 112 0 120 -1 120 -19z"/>
<path d="M10742 7719 c-175 -29 -320 -107 -457 -244 -157 -157 -251 -329 -315
-578 -37 -142 -48 -215 -59 -378 -5 -71 -12 -133 -16 -137 -4 -4 -85 -6 -181
-5 l-174 2 0 -89 0 -89 175 2 176 2 -1 -722 c0 -660 -9 -1087 -26 -1251 l-7
-64 59 9 c74 10 260 10 339 0 l61 -8 -8 93 c-16 206 -28 756 -28 1333 l0 610
260 -4 260 -3 0 90 0 90 -257 -5 c-142 -2 -263 -1 -270 4 -11 8 -37 262 -49
493 -18 341 90 505 355 540 96 13 223 1 321 -29 44 -14 62 -16 65 -8 5 16 45
318 45 340 0 15 -12 17 -107 16 -60 -1 -132 -5 -161 -10z"/>
<path d="M8533 6218 c33 -777 45 -2617 19 -2868 -34 -323 -77 -473 -166 -576
-72 -84 -205 -151 -355 -180 -41 -8 -77 -17 -80 -19 -2 -3 2 -26 10 -53 l15
-47 50 3 c95 7 272 41 370 73 366 117 528 308 606 714 21 108 21 140 28 1580
4 809 11 1483 15 1498 l8 29 -94 -9 c-118 -10 -240 -10 -348 0 l-84 8 6 -153z"/>
<path d="M3517 1990 c6 -413 20 -482 117 -547 71 -48 115 -58 261 -58 127 0
132 1 198 33 46 23 77 47 101 78 56 73 65 130 70 461 l4 291 -56 4 -57 3 4
-291 c4 -333 -2 -374 -66 -444 -86 -96 -282 -90 -350 9 -40 59 -46 125 -39
411 3 146 9 276 12 290 l5 25 -103 0 -104 0 3 -265z"/>
<path d="M8355 1961 c-92 -41 -126 -132 -84 -218 20 -40 37 -56 104 -96 44
-26 92 -58 108 -71 35 -31 36 -74 3 -113 -20 -23 -32 -28 -69 -28 -53 0 -94
25 -119 74 l-17 33 -11 -43 c-6 -24 -13 -52 -16 -61 -9 -30 50 -52 141 -53 67
0 87 4 125 25 60 34 90 87 90 161 0 81 -24 111 -140 174 -120 65 -143 103 -99
159 37 47 138 30 169 -29 l14 -27 12 34 c7 18 13 41 13 51 2 44 -148 63 -224
28z"/>
<path d="M10539 1953 c-68 -180 -131 -338 -170 -431 -27 -63 -49 -117 -49
-120 0 -4 15 -7 34 -8 33 0 34 0 62 80 15 45 32 84 38 88 20 14 173 9 188 -5
7 -8 24 -47 37 -88 l23 -74 69 0 c38 0 69 3 69 8 0 4 -23 62 -52 130 -28 67
-79 194 -113 282 -60 157 -62 160 -93 163 -27 3 -34 -1 -43 -25z m51 -238 c18
-47 31 -88 28 -91 -3 -3 -37 -4 -76 -2 l-70 3 35 92 c20 51 39 91 43 88 4 -2
22 -43 40 -90z"/>
<path d="M4655 1683 l0 -288 33 0 32 0 0 199 c0 184 1 197 17 185 9 -8 92 -97
184 -198 156 -171 170 -184 203 -185 l36 -1 0 288 0 287 -35 0 -34 0 6 -190
c4 -111 2 -190 -3 -190 -5 0 -85 85 -179 189 l-170 189 -45 1 -45 1 0 -287z"/>
<path d="M5545 1682 l0 -287 67 0 67 0 3 288 3 287 -70 0 -70 0 0 -288z"/>
<path d="M6019 1923 c10 -27 46 -115 79 -198 32 -82 74 -189 92 -237 l33 -88
37 0 36 0 53 139 c29 76 81 205 116 285 l63 146 -38 0 -37 0 -28 -77 c-64
-181 -128 -334 -135 -326 -6 6 -92 238 -145 391 -3 8 -27 12 -75 12 l-70 0 19
-47z"/>
<path d="M6835 1682 l0 -287 163 0 162 0 0 34 0 34 -94 -6 c-111 -7 -106 -14
-106 127 l0 88 95 -4 95 -4 0 33 0 33 -95 0 -95 0 0 78 c0 42 4 83 9 91 7 11
29 13 99 9 l90 -5 -1 33 -1 34 -160 0 -161 0 0 -288z"/>
<path d="M7515 1683 l0 -288 67 0 68 0 -6 135 -5 135 23 -28 c13 -15 52 -76
88 -134 l66 -106 72 -1 c40 -1 72 0 72 2 0 1 -40 63 -90 137 -49 74 -90 137
-90 139 0 3 20 14 45 25 55 24 85 70 85 128 0 57 -17 89 -59 116 -32 20 -52
22 -186 25 l-150 4 0 -289z m198 236 c52 -14 71 -46 65 -114 -3 -34 -12 -62
-23 -75 -20 -22 -89 -45 -105 -35 -11 7 -14 218 -3 228 9 9 22 9 66 -4z"/>
<path d="M8970 1683 l0 -288 68 0 67 0 0 288 0 287 -67 0 -68 0 0 -287z"/>
<path d="M9497 1683 l3 -288 147 0 c163 1 231 15 293 60 109 81 141 272 65
401 -55 93 -117 114 -344 114 l-166 0 2 -287z m320 219 c33 -18 71 -69 83
-110 13 -47 13 -156 0 -203 -27 -96 -100 -149 -207 -149 l-63 0 0 239 0 240
28 3 c40 4 135 -8 159 -20z"/>
<path d="M11165 1682 l0 -289 155 2 c187 2 248 20 317 91 93 96 99 292 12 397
-60 73 -90 81 -299 85 l-185 4 0 -290z m315 215 c67 -33 93 -91 93 -205 0
-170 -72 -251 -220 -252 l-63 0 0 239 0 240 28 3 c51 6 117 -4 162 -25z"/>
<path d="M12075 1683 l-1 -288 158 0 158 0 0 34 0 34 -95 -6 -95 -6 0 111 0
111 95 -5 95 -5 0 33 0 34 -95 0 -95 0 0 91 0 92 95 -5 95 -5 0 33 0 34 -158
0 -157 0 0 -287z"/>
<path d="M15 650 l0 -435 100 0 100 0 -3 212 -4 212 99 -5 c54 -3 117 -6 141
-8 l42 -4 0 54 0 53 -62 -4 c-35 -3 -98 -7 -140 -10 l-78 -5 0 139 c0 135 1
139 23 145 21 5 127 1 225 -9 l42 -5 0 53 0 52 -243 0 -242 0 0 -435z"/>
<path d="M7645 620 c0 -431 -1 -467 -18 -498 -20 -37 -68 -62 -117 -62 -33 0
-38 -15 -16 -45 11 -15 21 -17 67 -12 180 21 268 115 276 292 1 44 4 240 6
435 l4 355 -102 0 -101 0 1 -465z"/>
<path d="M12995 650 l0 -435 101 0 101 0 -5 206 c-3 116 -1 208 4 211 5 3 69
3 142 -1 l132 -6 0 52 0 52 -62 -4 c-35 -3 -98 -7 -140 -10 l-78 -5 0 135 c0
124 2 135 20 145 18 10 105 8 227 -5 l41 -4 4 52 3 52 -245 0 -245 0 0 -435z"/>
<path d="M3704 823 c-43 -118 -166 -427 -203 -511 -22 -51 -41 -95 -41 -97 0
-3 18 -5 39 -5 39 0 40 1 59 53 11 28 26 71 33 95 l12 43 116 -3 115 -3 30
-93 30 -92 79 0 c71 0 79 2 74 18 -3 9 -57 143 -119 298 -62 154 -118 294
-125 312 -10 28 -16 32 -46 32 -33 0 -37 -3 -53 -47z m72 -274 c13 -37 24 -72
24 -78 0 -7 -27 -11 -80 -11 -58 0 -80 3 -80 13 0 14 54 156 71 189 11 20 12
20 26 -13 8 -19 26 -64 39 -100z"/>
<path d="M13949 847 c-143 -49 -212 -149 -213 -312 -1 -157 43 -239 162 -297
64 -32 71 -33 187 -33 116 0 123 1 187 33 112 55 165 138 175 272 10 131 -34
240 -119 298 -95 65 -254 81 -379 39z m227 -47 c45 -23 84 -72 105 -135 17
-53 18 -198 0 -257 -16 -57 -72 -125 -118 -144 -104 -44 -220 14 -260 130 -21
63 -23 213 -4 271 46 133 163 190 277 135z"/>
<path d="M15492 697 c-35 -94 -94 -243 -132 -329 l-67 -158 42 0 42 0 32 95
33 95 113 0 113 0 32 -95 32 -95 79 0 c43 0 79 2 79 4 0 2 -12 30 -26 62 -29
65 -166 407 -209 522 -27 71 -27 72 -63 72 l-37 0 -63 -173z m112 -129 c20
-53 36 -100 36 -103 0 -3 -38 -5 -85 -5 -47 0 -85 3 -85 6 0 21 84 214 90 207
4 -4 24 -52 44 -105z"/>
<path d="M795 536 l0 -324 178 -1 177 -1 0 40 0 40 -103 -7 c-123 -7 -117 -15
-117 141 l0 99 108 -5 107 -4 0 39 0 39 -105 -3 -105 -4 -3 70 c-2 39 0 85 3
104 l6 34 105 -6 104 -6 0 40 0 39 -177 0 -178 0 0 -324z"/>
<path d="M1395 535 l0 -327 175 4 c147 4 185 8 234 26 140 51 200 145 200 312
-1 136 -51 227 -151 277 -57 27 -62 28 -258 31 l-200 4 0 -327z m281 264 c129
-23 176 -95 176 -265 -1 -141 -53 -229 -154 -259 -59 -17 -144 -20 -153 -4 -9
13 -8 516 0 529 8 13 57 13 131 -1z"/>
<path d="M2245 536 l0 -323 180 -2 181 -1 -1 40 0 39 -107 -6 -108 -6 0 123 0
122 105 -4 105 -4 0 40 0 39 -105 -5 -105 -5 0 105 0 105 108 -6 107 -6 0 39
0 40 -180 0 -180 0 0 -324z"/>
<path d="M2845 536 l0 -325 73 1 72 0 0 151 c1 177 -9 179 112 -20 l80 -131
79 0 c43 0 79 2 79 4 0 3 -45 72 -100 154 -55 82 -100 152 -100 155 0 3 18 12
40 21 111 45 146 184 65 260 -46 43 -100 54 -262 54 l-138 0 0 -324z m268 234
c22 -25 27 -40 27 -81 0 -86 -46 -139 -120 -139 l-30 0 0 131 0 132 48 -7 c35
-4 54 -14 75 -36z"/>
<path d="M4245 535 l0 -320 183 0 182 0 0 36 0 35 -111 -4 -110 -5 3 289 3
289 -75 0 -75 0 0 -320z"/>
<path d="M5485 536 l0 -326 145 0 c232 0 334 33 407 128 42 56 57 109 57 207
1 142 -52 240 -156 286 -49 21 -70 23 -253 27 l-200 4 0 -326z m352 243 c77
-37 108 -106 107 -245 0 -82 -3 -98 -29 -150 -44 -85 -98 -116 -202 -118 l-78
-1 -3 260 c-1 143 0 266 3 274 8 21 146 7 202 -20z"/>
<path d="M6335 536 l0 -323 183 -2 182 -1 0 40 0 40 -110 -7 -110 -6 0 123 0
122 105 -4 105 -4 0 39 0 39 -102 -4 -103 -3 -3 104 -3 104 109 -6 110 -6 0
39 1 40 -182 0 -182 0 0 -324z"/>
<path d="M8196 718 c10 -358 10 -361 32 -405 39 -75 121 -113 247 -113 99 0
164 21 212 69 60 60 65 87 72 354 l6 237 -45 0 -45 0 3 -222 c2 -148 -1 -237
-8 -265 -17 -60 -64 -101 -133 -115 -50 -11 -62 -10 -103 8 -62 25 -83 56 -95
140 -10 65 -4 364 7 427 l6 27 -80 0 -79 0 3 -142z"/>
<path d="M9035 533 l0 -321 75 0 75 0 0 321 0 322 -75 0 -75 0 0 -322z"/>
<path d="M9440 822 l0 -32 151 1 c83 1 153 -1 156 -4 6 -7 -94 -175 -234 -393
-56 -89 -103 -166 -103 -170 0 -5 127 -9 283 -9 l282 0 -3 36 -4 36 -181 -5
c-171 -5 -180 -4 -173 13 9 24 83 147 223 372 62 99 113 183 113 185 0 1 -115
3 -255 3 l-255 0 0 -33z"/>
<path d="M10855 535 l0 -325 145 0 c224 0 328 31 399 117 85 103 91 301 13
416 -35 52 -101 94 -171 107 -29 5 -128 10 -220 10 l-166 0 0 -325z m355 242
c83 -42 124 -167 100 -307 -23 -139 -97 -203 -235 -204 l-70 -1 -3 260 c-1
143 0 266 3 274 8 21 148 6 205 -22z"/>
<path d="M11705 536 l0 -323 182 -2 182 -1 -1 40 0 39 -109 -6 -109 -6 0 123
0 122 105 -4 105 -4 0 40 0 39 -105 -5 -105 -5 0 105 0 105 108 -6 107 -6 0
39 0 40 -180 0 -180 0 0 -324z"/>
<path d="M14685 537 l0 -326 72 0 73 0 -7 150 c-3 87 -2 149 3 149 9 0 154
-227 176 -275 10 -22 15 -24 94 -23 61 0 82 3 77 11 -4 7 -51 78 -105 160
l-99 147 28 10 c87 31 123 77 123 157 0 68 -20 103 -74 134 -37 22 -55 24
-201 27 l-160 4 0 -325z m230 259 c46 -20 69 -66 62 -127 -3 -26 -12 -57 -19
-68 -16 -27 -67 -51 -107 -51 l-31 0 0 123 c0 68 3 127 7 130 11 11 52 8 88
-7z"/>
</g>
</svg>
